PathFileType	4	(X/Y/Z)	D:\Long Term Storage\D'Arcy Smith\Coord15.trc
DataRate	CameraRate	NumFrames	NumMarkers	Units	OrigDataRate	OrigDataStartFrame	OrigNumFrames
120.00	120.00	      150	4	mm	120.00	606	      4841
Frame#	Time	M1			M2			M3			M4			
		X1	Y1	Z1	X2	Y2	Z2	X3	Y3	Z3	X4	Y4	Z4	

606	5.042	1054.23926	394.16669	139.32582	1747.79724	412.82794	171.56067							
607	5.050	1054.14465	388.79782	143.88680	1749.43958	406.59213	177.99368							
608	5.058	1054.03430	382.97064	149.05319	1750.54736	399.47043	184.96481							
609	5.067	1054.03503	376.65417	154.69270	1751.78308	392.06937	192.62883							
610	5.075	1053.89160	370.00446	160.92873	1752.72559	384.30933	201.01489							
611	5.083	1053.78284	362.94376	167.57884	1753.55750	376.22659	209.93730							
612	5.092	1053.79504	355.80670	174.69711	1754.17236	368.01340	219.67966							
613	5.100	1053.77991	348.35931	182.17030	1754.56079	359.68210	229.94159							
614	5.108	1053.82153	340.73840	190.22754	1754.69775	351.31564	241.02309							
615	5.117	1053.94421	332.94180	198.80655	1754.57397	342.89688	252.67123							
616	5.125	1054.13965	325.20746	207.76207	1754.15454	334.59335	265.05585							
617	5.133	1054.35205	317.55768	217.17734	1753.51050	326.38654	278.01572							
618	5.142	1054.30115	309.61865	227.06589	1752.45667	318.50104	291.53717							
619	5.150	1055.07703	301.83401	237.81996	1751.08679	311.03525	307.46536							
620	5.158	1055.43567	294.23740	248.79715	1749.55945	303.85007	320.58508							
621	5.167	1056.22742	287.11215	260.34171	1747.67126	297.16843	335.80759							
622	5.175	1056.60388	279.96463	272.66339	1745.30310	291.02319	351.52213							
623	5.183	1057.61169	273.96622	284.98001	1742.71741	285.38727	367.60498							
624	5.192	1058.33984	268.52704	297.86227	1739.74707	280.56516	383.98224							
625	5.200	1059.39221	263.64127	310.92880	1736.48218	276.36093	400.48987							
626	5.208	1059.83594	259.73444	324.49207	1733.00195	272.90863	417.03836							
627	5.217	1061.14966	255.60173	338.38315	1729.21875	270.16620	433.50317							
628	5.225	1062.33301	252.64490	351.68579	1725.38428	268.23575	449.79715							
629	5.233	1063.75671	249.35497	366.37021	1721.18127	267.04459	465.80411							
630	5.242	1064.89294	247.53876	380.09299	1716.99976	266.85532	482.70602							
631	5.250	1065.95630	245.89272	393.51520	1712.62366	266.81250	496.54483							
632	5.258	1066.77014	244.16402	406.88239	1708.20850	267.59277	511.01410							
633	5.267	1068.12744	243.74445	419.05521	1703.43201	268.90045	526.19519							
634	5.275	1069.14954	243.51030	431.38821	1699.05066	270.94434	538.81702							
635	5.283	1070.21509	244.12901	442.54688	1694.46790	272.53214	549.18719							
636	5.292	1071.26001	245.13025	453.60300	1690.75024	274.90933	559.68616							
637	5.300	1072.03625	246.47479	464.75827	1686.30334	277.01160	569.14099							
638	5.308	1072.83594	247.26393	474.64658	1681.95850	278.82385	577.18738							
639	5.317	1073.47742	248.94089	482.77887	1676.95532	280.15225	583.96954							
640	5.325	1074.01489	250.22781	490.52164	1672.97058	281.40521	589.15869							
641	5.333	1074.21045	251.92960	495.67871	1669.89783	282.76620	592.94305							
642	5.342	1074.56714	253.78778	502.59537	1666.40967	283.25983	595.23993							
643	5.350	1074.94934	255.08868	505.49762	1663.21545	283.34616	596.02673							
644	5.358	1074.98804	256.05725	508.11215	1659.56689	282.64627	595.37659							
645	5.367	1074.75940	256.51624	509.44229	1657.46301	282.17624	593.40485							
646	5.375	1074.93433	257.23642	510.13724	1655.25171	281.18909	589.89575							
647	5.383	1074.71497	257.80121	508.94336	1652.98792	279.34216	585.34338							
648	5.392	1074.71790	257.94495	507.72336	1651.02991	277.51895	579.41925							
649	5.400	1074.41858	257.67111	504.85077	1648.97229	275.22702	572.18732							
650	5.408	1073.96509	257.16867	501.96152	1648.75146	273.43692	563.79388							
651	5.417	1073.71558	255.93454	495.42691	1647.87671	271.31842	554.43542							
652	5.425	1073.31775	255.34917	489.35809	1647.15979	269.18124	544.11121							
653	5.433	1072.70898	254.80768	481.69058	1646.80969	267.32245	532.90594							
654	5.442	1072.16125	254.42056	473.17239	1646.75427	265.41446	520.55396							
655	5.450	1071.38501	254.00287	463.77304	1647.43518	264.32657	507.82510							
656	5.458	1070.70081	253.75841	454.05054	1647.45105	263.15674	495.14075							
657	5.467	1069.86951	253.69017	442.85226	1648.33130	262.68460	481.47467							
658	5.475	1068.94373	253.53738	433.29333	1649.56006	262.79282	467.39697							
659	5.483	1068.51099	255.09047	418.96570	1651.14697	263.26080	452.98303							
660	5.492	1067.69800	256.41663	406.72940	1652.88770	264.42841	438.20648							
661	5.500	1066.91040	258.01273	394.19296	1654.94019	266.20471	423.18069							
662	5.508	1066.18164	260.15894	381.31668	1657.22205	268.62344	407.86737							
663	5.517	1065.35901	262.71271	368.11304	1659.95911	272.07697	392.41470							
664	5.525	1064.58264	265.63684	355.04199	1662.29089	275.63214	377.14716							
665	5.533	1063.71082	269.79684	340.67664	1665.18726	280.07153	361.77301							
666	5.542	1062.95813	273.76389	327.14294	1668.08142	285.37766	346.49362							
667	5.550	1062.31458	278.11023	313.25302	1671.18262	291.15686	331.38156							
668	5.558	1061.66541	283.06824	299.97464	1674.34509	297.66412	316.57983							
669	5.567	1061.11609	288.27054	286.82538	1677.48962	304.54700	302.10980							
670	5.575	1060.52747	293.88672	273.95605	1680.76917	311.83667	287.84918							
671	5.583	1060.00500	299.87326	261.50262	1684.39368	319.57986	274.20648							
672	5.592	1059.36743	306.05472	249.34734	1687.90613	327.56699	260.95526							
673	5.600	1058.84387	312.44260	237.62924	1691.27100	336.08295	248.22807							
674	5.608	1057.98010	318.98590	226.17122	1694.48511	344.84375	236.13132							
675	5.617	1057.65955	325.84814	215.28940	1697.52869	353.69714	224.67072							
676	5.625	1056.94678	332.32037	204.82132	1700.81226	362.59317	213.77162							
677	5.633	1056.17688	339.00281	195.08527	1703.89417	371.55054	203.52567							
678	5.642	1055.53210	345.75516	185.57413	1706.79236	380.35144	193.95296							
679	5.650	1054.72217	352.23410	176.96623	1709.78259	389.02435	185.10257							
680	5.658	1054.00281	358.54346	168.82825	1712.69812	397.42874	176.97627							
681	5.667	1053.32080	364.72522	161.24969	1715.33960	405.52084	169.50294							
682	5.675	1052.25610	370.39069	154.67401	1718.02905	413.57764	162.82928							
683	5.683	1051.31372	375.75430	148.69141	1720.07654	420.36179	156.91425							
684	5.692	1050.30933	380.64951	143.28951	1723.34412	426.97369	151.99513							
685	5.700	1049.29688	385.06506	138.71777	1725.44067	432.56320	148.00223							
686	5.708	1048.14966	388.97964	134.81830	1726.45264	436.89746	144.74245							
687	5.717	1046.91345	392.36395	131.51347	1729.85291	441.46625	142.79176							
688	5.725	1045.77686	395.03436	129.04373	1731.76074	444.39478	141.23930							
689	5.733	1044.51697	397.11456	127.21903	1733.21985	446.49710	140.44591							
690	5.742	1043.14893	398.54300	126.16837	1735.13416	447.84930	140.46185							
691	5.750	1041.94556	399.15292	125.70624	1735.44275	447.87085	141.00789							
692	5.758	1040.75623	399.33646	125.76266	1737.77136	447.68393	142.25444							
693	5.767	1039.18884	398.45447	126.79398	1739.25024	446.50278	143.96831							
694	5.775	1037.91833	397.18292	128.37929	1739.50732	444.00656	146.14977							
695	5.783	1036.92017	395.40115	130.10501	1740.51196	441.11453	148.82558							
696	5.792	1035.46252	392.69122	132.77737	1741.47742	437.52020	152.07393							
697	5.800	1034.22510	389.88870	135.36079	1743.06152	433.62582	155.80386							
698	5.808	1032.80200	385.83047	139.22565	1743.66394	428.71130	159.89629							
699	5.817	1031.79736	381.56625	143.07549	1744.13416	423.19760	164.48907							
700	5.825	1030.91516	377.08044	147.50841	1743.76978	416.80994	169.51901							
701	5.833	1029.80212	371.56027	152.78030	1743.88550	410.33954	175.20291							
702	5.842	1029.24377	366.21246	158.10210	1743.84863	403.40833	181.39424							
703	5.850	1028.51025	360.07211	164.20004	1743.71265	396.04950	188.19789							
704	5.858	1027.97705	353.38730	170.84073	1744.36914	388.85953	195.79628							
705	5.867	1027.84424	346.86365	177.90198	1743.06042	380.54739	203.67389							
706	5.875	1027.65710	339.68893	185.63164	1742.12781	372.25027	212.39816							
707	5.883	1027.48352	332.39572	193.82289	1741.09253	363.63361	221.82388							
708	5.892	1027.92847	324.96979	202.64378	1740.14331	355.02011	232.00209							
709	5.900	1028.60547	317.50348	212.00587	1739.13428	346.31845	242.95464							
710	5.908	1029.27307	309.97269	221.84937	1737.57166	337.57889	254.51108							
711	5.917	1030.31445	302.57446	232.24567	1735.93079	328.88525	266.81363							
712	5.925	1031.55603	295.17422	243.37820	1734.11304	320.36456	279.84283							
713	5.933	1033.08545	288.33224	254.71512	1731.95776	312.09225	293.44894							
714	5.942	1034.79309	281.97229	266.48392	1729.64624	304.15646	307.62332							
715	5.950	1036.75513	275.88535	278.73404	1727.13733	296.65543	322.36938							
716	5.958	1039.12305	270.46848	291.19470	1724.43164	289.61118	337.62036							
717	5.967	1041.48267	265.47864	303.93359	1721.46106	283.07031	353.29449							
718	5.975	1044.01257	260.87009	316.94482	1718.21240	277.25522	369.40912							
719	5.983	1046.46069	257.02472	330.67462	1714.76941	272.19931	385.78491							
720	5.992	1048.97485	253.10085	344.57132	1711.20129	267.68951	402.40594							
721	6.000	1051.71472	250.69986	355.73410	1707.33081	263.97867	419.18051							
722	6.008	1054.68762	248.38971	371.13504	1703.22534	261.20691	435.92157							
723	6.017	1057.22131	246.50441	384.28116	1698.94263	259.24393	452.58716							
724	6.025	1059.75488	245.52341	396.65335	1694.35559	258.09540	469.19086							
725	6.033	1062.17175	245.03943	408.49200	1689.57703	258.08514	485.50217							
726	6.042	1064.61084	244.89909	419.60391	1684.66907	258.89383	501.38562							
727	6.050	1066.60449	245.22964	430.06033	1680.48035	260.84540	516.68781							
728	6.058	1068.38672	245.35783	440.01669	1674.52026	262.81992	531.36481							
729	6.067	1069.82910	246.47728	448.94003	1669.30164	265.76419	545.30005							
730	6.075	1071.24805	247.01547	457.01965	1664.15063	269.21625	558.33960							
731	6.083	1072.46582	248.30727	463.59381	1659.64587	273.19495	570.41785							
732	6.092	1073.10913	248.78557	470.59476	1654.20752	277.04361	581.26642							
733	6.100	1073.64990	249.54352	475.58884	1649.07043	280.67728	591.28821							
734	6.108	1073.86487	250.19482	479.51587	1644.71765	284.74078	600.01508							
735	6.117	1073.97620	250.80014	482.74738	1639.95422	288.52515	607.53876							
736	6.125	1073.79370	251.25539	484.31097	1634.87964	291.66681	613.75800							
737	6.133	1073.45300	251.51717	484.90750	1630.48718	294.07782	618.40186							
738	6.142	1072.86768	251.58983	484.63510	1625.30054	296.02847	621.89801							
739	6.150	1071.93628	251.58919	483.38809	1621.62903	297.84003	623.99548							
740	6.158	1070.88245	251.48070	481.35327	1617.42590	298.78427	624.74078							
741	6.167	1069.49536	251.24641	478.02527	1613.57605	299.37186	624.13220							
742	6.175	1068.32898	250.96327	474.00397	1609.97803	298.83411	622.08185							
743	6.183	1066.66370	250.73857	469.13034	1606.02344	297.59448	618.63171							
744	6.192	1065.20361	250.23080	463.63187	1603.41931	296.48770	614.10156							
745	6.200	1063.43774	250.02257	457.60144	1600.91528	294.59573	608.16681							
746	6.208	1061.61914	250.49229	450.05710	1597.73840	291.95459	601.06323							
747	6.217	1059.78784	250.55690	442.65091	1596.32825	289.69617	592.76740							
748	6.225	1058.02954	250.88216	434.53424	1593.82483	286.50330	583.33575							
749	6.233	1056.07581	251.27267	425.98166	1592.31348	283.58383	572.89423							
750	6.242	1054.19263	252.08072	417.33847	1592.17261	280.86041	561.42938							
751	6.250	1052.37939	252.97502	407.70349	1591.37756	277.93658	549.13257							
752	6.258	1050.60437	254.91481	398.59692	1590.33911	274.99924	536.07562							
753	6.267	1049.06848	255.40353	388.72415	1591.42114	273.05850	522.20190							
754	6.275	1047.24146	257.74139	378.06125	1591.19006	270.77097	507.78159							
755	6.283	1045.75317	259.81525	368.36957	1592.17212	269.33490	492.64584							
